<svg xmlns="http://www.w3.org/2000/svg" width="1536" height="1024" viewBox="0 0 1536 1024" role="img" aria-labelledby="title desc">
  <title id="title">Verdean — Every promise, reconciled.</title>
  <desc id="desc">Social card for the local-first quote-to-contract validation agent.</desc>
  <defs>
    <mask id="evidence-bridge-cut" maskUnits="userSpaceOnUse" x="0" y="0" width="64" height="64">
      <rect width="64" height="64" fill="white"/>
      <path d="M20 31L29 39L43 22" fill="none" stroke="black" stroke-width="6" stroke-linecap="round" stroke-linejoin="round"/>
    </mask>
  </defs>
  <rect width="1536" height="1024" fill="#F7F4EE"/>
  <rect x="64" y="64" width="1408" height="896" rx="56" fill="#FFFDF9" stroke="#E6E0D6" stroke-width="2"/>
  <g transform="translate(136 126) scale(1.8)" mask="url(#evidence-bridge-cut)">
    <path d="M6 54L21.4 13.2Q22.6 10 26 10H31L39 21.2L29.2 31.4L21.2 54Z" fill="#171714"/>
    <path d="M29 36.2L41.7 18.9Q43.3 16.7 45.4 16.7Q47.2 16.7 48.2 19.4L59 54H40.1Z" fill="#6F7654"/>
  </g>
  <text x="278" y="221" fill="#171714" font-family="Arial, Helvetica, sans-serif" font-size="74" font-weight="700" letter-spacing="-3">Verdean</text>
  <text x="136" y="431" fill="#171714" font-family="Georgia, serif" font-size="104" font-weight="400" letter-spacing="-5">Every promise,</text>
  <text x="136" y="541" fill="#6F7654" font-family="Georgia, serif" font-size="104" font-style="italic" font-weight="400" letter-spacing="-5">reconciled.</text>
  <text x="142" y="661" fill="#696761" font-family="Arial, Helvetica, sans-serif" font-size="36">Local-first quote-to-contract validation.</text>
  <g transform="translate(136 756)">
    <rect width="532" height="74" rx="37" fill="#1D1C1A"/>
    <circle cx="42" cy="37" r="9" fill="#74C99A"/>
    <text x="70" y="48" fill="#FFFDF9" font-family="Arial, Helvetica, sans-serif" font-size="25" font-weight="600">Traceable evidence. Human control.</text>
  </g>
  <path d="M1080 293c80-73 149 70 252 0M1080 421c92-74 154 69 272-4M1080 549c72-55 140 52 247-11" fill="none" stroke="#D8E5D2" stroke-width="26" stroke-linecap="round" opacity=".88"/>
  <circle cx="1111" cy="293" r="17" fill="#E56E45"/>
  <circle cx="1260" cy="421" r="17" fill="#F5C765"/>
  <circle cx="1175" cy="549" r="17" fill="#65745B"/>
  <rect x="1120" y="690" width="246" height="140" rx="24" fill="#F3EFE8" stroke="#E6E0D6" stroke-width="2"/>
  <path d="M1172 759l38 38 97-111" fill="none" stroke="#65745B" stroke-width="17" stroke-linecap="round" stroke-linejoin="round"/>
  <text x="1181" y="899" fill="#696761" font-family="Arial, Helvetica, sans-serif" font-size="28" font-weight="600">local-first review</text>
</svg>
