<svg xmlns="http://www.w3.org/2000/svg" viewBox="0 0 280.73 72" role="img" aria-labelledby="title desc">
  <title id="title">Verdean — primary</title>
  <desc id="desc">Verdean Evidence Bridge mark and wordmark.</desc>
  <defs>
    <mask id="verdean-primary-cut" maskUnits="userSpaceOnUse" x="0" y="0" width="64" height="64">
      <rect width="64" height="64" fill="white"/>
      <path d="M20.5 30.5 29 39 44 21.5" fill="none" stroke="black" stroke-width="6.5" stroke-linecap="round" stroke-linejoin="round"/>
    </mask>
  </defs>
  <g transform="translate(4 4) scale(.96)">
    <g mask="url(#verdean-primary-cut)">
      <path data-part="promise" fill="#171714" d="M5.5 54 20.8 12.8c.7-2 2.1-3 4.2-3h5.8l8.5 11.5-10.5 10.8L21 54Z"/>
      <path data-part="contract" fill="#6F7654" d="m29.2 36.6 12.5-18.4c1.1-1.7 3.7-1.6 4.7.2L59 54H40.1Z"/>
    </g>
  </g>
  <g data-part="wordmark" fill="#171714" transform="translate(82 53)">
    <path d="M276.03997802734375 0 19.3599853515625 710H147.28076171875L350.640380859375 134.9609375L553.3200073242188 710H681.2407836914062L423.9207763671875 0Z" transform="translate(0.000 0) scale(0.04800000 -0.04800000)"/>
    <path d="M297.8802490234375 -12Q219.0401611328125 -12 161.18008422851562 22.32000732421875Q103.32000732421875 56.6400146484375 71.73995971679688 119.46002197265625Q40.159912109375 182.280029296875 40.159912109375 266.60003662109375Q40.159912109375 350.9200439453125 71.73995971679688 413.24005126953125Q103.32000732421875 475.56005859375 160.50009155273438 510.38006591796875Q217.68017578125 545.2000732421875 295.1602783203125 545.2000732421875Q369.92041015625 545.2000732421875 426.2804870605469 511.4200439453125Q482.64056396484375 477.6400146484375 513.5805969238281 414.03997802734375Q544.5206298828125 350.43994140625 544.5206298828125 260.7999267578125V232.91986083984375H164.000732421875Q168.04071044921875 159.44012451171875 203.7406005859375 122.68026733398438Q239.44049072265625 85.92041015625 299.1602783203125 85.92041015625Q343.80010986328125 85.92041015625 373.1400146484375 106.10031127929688Q402.47991943359375 126.28021240234375 414.19989013671875 162.44012451171875L536.8406372070312 154.4801025390625Q515.5206298828125 78.3599853515625 452.0605163574219 33.17999267578125Q388.60040283203125 -12 297.8802490234375 -12ZM164.000732421875 316.52008056640625H419.8798828125Q415.47991943359375 383.91986083984375 381.6200256347656 416.2397766113281Q347.7601318359375 448.5596923828125 295.1602783203125 448.5596923828125Q241.8404541015625 448.5596923828125 207.14056396484375 414.7397766113281Q172.440673828125 380.91986083984375 164.000732421875 316.52008056640625Z" transform="translate(32.948 0) scale(0.04800000 -0.04800000)"/>
    <path d="M72.31982421875 0V533.2000732421875H182.8006591796875L187.440673828125 387.6798095703125L177.5206298828125 390.35980224609375Q189.12066650390625 465.39996337890625 222.46066284179688 499.3000183105469Q255.8006591796875 533.2000732421875 313.0806884765625 533.2000732421875H363.16064453125V429.51953125H313.12066650390625Q272.16064453125 429.51953125 245.34063720703125 416.9395751953125Q218.5206298828125 404.359619140625 205.0206298828125 378.2596740722656Q191.5206298828125 352.15972900390625 191.5206298828125 310.07977294921875V0Z" transform="translate(60.328 0) scale(0.04800000 -0.04800000)"/>
    <path d="M261.91986083984375 -12Q193.55987548828125 -12 143.69989013671875 22.160003662109375Q93.83990478515625 56.32000732421875 66.99990844726562 118.80001831054688Q40.159912109375 181.280029296875 40.159912109375 266.60003662109375Q40.159912109375 351.9200439453125 67.159912109375 414.4000549316406Q94.159912109375 476.88006591796875 144.17990112304688 511.0400695800781Q194.19989013671875 545.2000732421875 261.91986083984375 545.2000732421875Q317.159912109375 545.2000732421875 359.8798828125 522.2200622558594Q402.599853515625 499.24005126953125 424.27984619140625 457.9200439453125V710H543.4806518554688V0H431.31982421875L428.31982421875 79.3599853515625Q406.31982421875 36.3599853515625 362.1198425292969 12.17999267578125Q317.91986083984375 -12 261.91986083984375 -12ZM296.20025634765625 86.88043212890625Q337.44012451171875 86.88043212890625 365.9400329589844 108.0003662109375Q394.43994140625 129.12030029296875 409.3598937988281 169.460205078125Q424.27984619140625 209.80010986328125 424.27984619140625 266.60003662109375Q424.27984619140625 324.75994873046875 409.3598937988281 364.7598571777344Q394.43994140625 404.759765625 365.9400329589844 425.5397033691406Q337.44012451171875 446.31964111328125 296.20025634765625 446.31964111328125Q235.48046875 446.31964111328125 199.58059692382812 398.29974365234375Q163.68072509765625 350.27984619140625 163.68072509765625 266.60003662109375Q163.68072509765625 184.240234375 199.7406005859375 135.56033325195312Q235.80047607421875 86.88043212890625 296.20025634765625 86.88043212890625Z" transform="translate(78.972 0) scale(0.04800000 -0.04800000)"/>
    <path d="M297.8802490234375 -12Q219.0401611328125 -12 161.18008422851562 22.32000732421875Q103.32000732421875 56.6400146484375 71.73995971679688 119.46002197265625Q40.159912109375 182.280029296875 40.159912109375 266.60003662109375Q40.159912109375 350.9200439453125 71.73995971679688 413.24005126953125Q103.32000732421875 475.56005859375 160.50009155273438 510.38006591796875Q217.68017578125 545.2000732421875 295.1602783203125 545.2000732421875Q369.92041015625 545.2000732421875 426.2804870605469 511.4200439453125Q482.64056396484375 477.6400146484375 513.5805969238281 414.03997802734375Q544.5206298828125 350.43994140625 544.5206298828125 260.7999267578125V232.91986083984375H164.000732421875Q168.04071044921875 159.44012451171875 203.7406005859375 122.68026733398438Q239.44049072265625 85.92041015625 299.1602783203125 85.92041015625Q343.80010986328125 85.92041015625 373.1400146484375 106.10031127929688Q402.47991943359375 126.28021240234375 414.19989013671875 162.44012451171875L536.8406372070312 154.4801025390625Q515.5206298828125 78.3599853515625 452.0605163574219 33.17999267578125Q388.60040283203125 -12 297.8802490234375 -12ZM164.000732421875 316.52008056640625H419.8798828125Q415.47991943359375 383.91986083984375 381.6200256347656 416.2397766113281Q347.7601318359375 448.5596923828125 295.1602783203125 448.5596923828125Q241.8404541015625 448.5596923828125 207.14056396484375 414.7397766113281Q172.440673828125 380.91986083984375 164.000732421875 316.52008056640625Z" transform="translate(107.840 0) scale(0.04800000 -0.04800000)"/>
    <path d="M224.280029296875 -12Q141.32000732421875 -12 90.73995971679688 26.32000732421875Q40.159912109375 64.6400146484375 40.159912109375 133.280029296875Q40.159912109375 202.56005859375 82.55996704101562 241.40005493164062Q124.96002197265625 280.24005126953125 212.280029296875 297.2000732421875L391.9598388671875 331.88006591796875Q391.9598388671875 390.8798828125 364.7799377441406 420.35980224609375Q337.60003662109375 449.8397216796875 284.520263671875 449.8397216796875Q236.24041748046875 449.8397216796875 208.56051635742188 427.8997802734375Q180.880615234375 405.9598388671875 171.12066650390625 364.43994140625L49.159912109375 371.11993408203125Q64.47991943359375 453.4801025390625 125.66000366210938 499.340087890625Q186.840087890625 545.2000732421875 284.520263671875 545.2000732421875Q396.1204833984375 545.2000732421875 453.64056396484375 487.8600769042969Q511.16064453125 430.52008056640625 511.16064453125 324.719970703125V125.24041748046875Q511.16064453125 104.68035888671875 518.3006591796875 97.02035522460938Q525.440673828125 89.3603515625 540.440673828125 89.3603515625H558.2406005859375V0Q552.6405639648438 -1.6400146484375 540.1204833984375 -2.780029296875Q527.6004028320312 -3.9200439453125 514.7203369140625 -3.9200439453125Q480.96038818359375 -3.9200439453125 455.7403259277344 7.099945068359375Q430.520263671875 18.11993408203125 417.00018310546875 43.89996337890625Q403.4801025390625 69.67999267578125 403.4801025390625 114.4801025390625L414.7601318359375 108Q406.4801025390625 73.03997802734375 380.1201171875 45.699981689453125Q353.7601318359375 18.3599853515625 313.6001281738281 3.17999267578125Q273.44012451171875 -12 224.280029296875 -12ZM247.0003662109375 77.3603515625Q291.68017578125 77.3603515625 324.06005859375 94.82028198242188Q356.43994140625 112.28021240234375 374.19989013671875 143.6201171875Q391.9598388671875 174.96002197265625 391.9598388671875 216.0799560546875V247.6798095703125L246.8404541015625 218.8798828125Q202.12066650390625 210.159912109375 182.90069580078125 191.89996337890625Q163.68072509765625 173.6400146484375 163.68072509765625 144.4801025390625Q163.68072509765625 112.6002197265625 185.54061889648438 94.98028564453125Q207.4005126953125 77.3603515625 247.0003662109375 77.3603515625Z" transform="translate(135.220 0) scale(0.04800000 -0.04800000)"/>
    <path d="M72.31982421875 0V533.2000732421875H180.36053466796875L184.9605712890625 386.35980224609375L170.48046875 393.1197509765625Q179.200439453125 447.159912109375 204.04043579101562 480.53997802734375Q228.88043212890625 513.9200439453125 265.02044677734375 529.56005859375Q301.16046142578125 545.2000732421875 343.760498046875 545.2000732421875Q403.16046142578125 545.2000732421875 443.30047607421875 519.1600952148438Q483.44049072265625 493.1201171875 504.0605163574219 447.6201171875Q524.6805419921875 402.1201171875 524.6805419921875 342.9200439453125V0H405.479736328125V305.15972900390625Q405.479736328125 350.95965576171875 396.21978759765625 382.53961181640625Q386.9598388671875 414.11956787109375 365.6399230957031 430.6595458984375Q344.32000732421875 447.19952392578125 308.80010986328125 447.19952392578125Q255.48028564453125 447.19952392578125 223.50045776367188 410.7795715332031Q191.5206298828125 374.359619140625 191.5206298828125 305.15972900390625V0Z" transform="translate(162.072 0) scale(0.04800000 -0.04800000)"/>
  </g>
</svg>
